<svg width="53" height="41" viewBox="0 0 53 41" fill="none" xmlns="http://www.w3.org/2000/svg">
<path fill-rule="evenodd" clip-rule="evenodd" d="M36.5468 9.11321C36.1302 8.86338 35.8278 8.44879 35.7079 7.96323C34.8411 4.4515 31.7886 1.86207 28.1643 1.86207C25.5902 1.86207 23.3068 3.16534 21.8852 5.18438C21.4517 5.80002 20.7019 6.07692 19.9938 5.88281C19.0244 5.61706 18.0053 5.47505 16.9518 5.47505C10.345 5.47505 4.98035 11.0817 4.98035 18.0093C4.98035 18.399 4.99729 18.7841 5.03035 19.1639C5.08185 19.7554 4.85987 20.337 4.43279 20.7296C2.80677 22.2244 1.7844 24.4096 1.7844 26.8472C1.7844 31.3469 5.2745 34.9903 9.57453 34.9903C10.6766 34.9903 11.7209 34.7522 12.6665 34.3242C13.3925 33.9956 14.2391 34.2052 14.7463 34.8391C15.8561 36.2261 17.5174 37.1025 19.3754 37.1025C20.2195 37.1025 21.0187 36.9223 21.7435 36.5984C22.4355 36.289 23.2392 36.4663 23.7521 37.0413C24.856 38.2788 26.4232 39.0479 28.1643 39.0479C29.7784 39.0479 31.2416 38.3874 32.326 37.3061C32.7662 36.8672 33.3905 36.6928 33.982 36.8435C34.574 36.9943 35.1941 37.0747 35.8346 37.0747C37.6104 37.0747 39.2431 36.4558 40.5529 35.4118C41.2089 34.8889 42.123 34.9038 42.763 35.4479C43.6134 36.1707 44.6939 36.6022 45.8752 36.6022C48.6004 36.6022 50.8156 34.2913 50.8156 31.4329C50.8156 29.9858 50.2497 28.6811 49.3334 27.7411C48.7213 27.1134 48.6242 26.1199 49.1022 25.3761C50.1842 23.6922 50.8156 21.6672 50.8156 19.4823C50.8156 13.6323 46.2766 8.89348 40.6818 8.89348C39.7224 8.89348 38.7969 9.03227 37.9214 9.29057C37.459 9.42698 36.9635 9.36304 36.5468 9.11321ZM50.5842 26.4132C51.8573 24.432 52.6 22.0478 52.6 19.4823C52.6 12.6059 47.264 7.03141 40.6818 7.03141C39.7496 7.03141 38.8424 7.14321 37.9718 7.35469C37.7916 7.39847 37.6129 7.44652 37.4359 7.49873C37.3987 7.34805 37.3583 7.19875 37.3146 7.05091C36.1086 2.9673 32.4681 0 28.1643 0C24.9977 0 22.1902 1.60638 20.4472 4.08185C19.3311 3.77588 18.1596 3.61298 16.9518 3.61298C9.35468 3.61298 3.19595 10.0584 3.19595 18.0093C3.19595 18.4554 3.21533 18.8967 3.25327 19.3324C1.25867 21.166 0 23.853 0 26.8472C0 32.3729 4.28666 36.8524 9.57453 36.8524C10.9255 36.8524 12.2111 36.56 13.3765 36.0325C14.8104 37.8246 16.9656 38.9646 19.3754 38.9646C20.4655 38.9646 21.5034 38.7313 22.446 38.31C23.8729 39.9097 25.9069 40.91 28.1643 40.91C30.2561 40.91 32.1559 40.0512 33.5588 38.6524C34.2882 38.8382 35.0504 38.9368 35.8346 38.9368C38.0156 38.9368 40.0262 38.1747 41.636 36.8916C42.7928 37.8749 44.2682 38.4643 45.8752 38.4643C49.5892 38.4643 52.6 35.3162 52.6 31.4329C52.6 29.4668 51.8283 27.6892 50.5842 26.4132Z" fill="white"/>
</svg>
