<svg width="183" height="83" viewBox="0 0 183 83" fill="none" xmlns="http://www.w3.org/2000/svg">
<path d="M26.8682 5.06203C18.1907 5.06203 15.596 14.6447 15.3833 19.436C7.72787 23.356 5.17547 28.5832 3.26133 35.7702C1.73001 41.5198 7.30167 49.9264 10.2789 53.411C7.72671 57.5925 10.0662 64.736 11.555 67.785C24.8264 87.6472 39.6292 76.4965 45.3716 68.4384C54.0491 74.7107 65.1511 73.6653 69.6175 72.3585C79.3158 83.8577 94.9268 79.7633 101.52 76.2787C115.302 83.5964 125.553 78.4566 128.956 74.972C141.207 82.2897 153.627 77.1499 158.306 73.6653C160.433 75.4076 166.218 78.1081 172.343 74.972C178.469 71.8359 177.022 62.7759 175.534 58.6379C177.022 57.7668 180 54.7178 180 49.4908C180 44.2639 174.896 37.7303 172.343 35.1169C174.045 28.3654 173.619 13.1639 158.306 6.3689C142.993 -0.426071 131.083 11.378 127.042 18.1294C118.875 3.49411 103.221 5.49765 96.4156 8.32884C81.6128 -3.17034 69.4048 6.58654 65.1511 12.9024C57.4945 7.15279 45.3716 10.5067 40.2672 12.9024C39.4165 10.2889 35.5457 5.06203 26.8682 5.06203Z" fill="#0E315F" stroke="#0E315F" stroke-width="5" stroke-linejoin="round"/>
<path d="M67.8581 38.2418L63.5381 48.4018C63.4447 48.6551 63.2981 48.8551 63.0981 49.0018C62.9114 49.1351 62.7047 49.2018 62.4781 49.2018C62.1181 49.2018 61.8514 49.1018 61.6781 48.9018C61.5047 48.7018 61.4181 48.4551 61.4181 48.1618C61.4181 48.0418 61.4381 47.9151 61.4781 47.7818L66.4581 35.8218C66.5647 35.5551 66.7247 35.3485 66.9381 35.2018C67.1647 35.0551 67.4047 34.9951 67.6581 35.0218C67.8981 35.0218 68.1181 35.0951 68.3181 35.2418C68.5314 35.3751 68.6847 35.5685 68.7781 35.8218L73.6981 47.5418C73.7647 47.7151 73.7981 47.8751 73.7981 48.0218C73.7981 48.3818 73.6781 48.6685 73.4381 48.8818C73.2114 49.0951 72.9581 49.2018 72.6781 49.2018C72.4381 49.2018 72.2181 49.1285 72.0181 48.9818C71.8314 48.8351 71.6847 48.6351 71.5781 48.3818L67.2781 38.3618L67.8581 38.2418ZM64.1581 45.9618L65.2581 43.6618H70.6581L71.0381 45.9618H64.1581ZM81.4315 38.2018C82.3648 38.2018 83.1982 38.4418 83.9315 38.9218C84.6782 39.3885 85.2648 40.0351 85.6915 40.8618C86.1315 41.6885 86.3515 42.6485 86.3515 43.7418C86.3515 44.8351 86.1315 45.8018 85.6915 46.6418C85.2648 47.4685 84.6848 48.1218 83.9515 48.6018C83.2315 49.0685 82.4182 49.3018 81.5115 49.3018C80.9782 49.3018 80.4782 49.2151 80.0115 49.0418C79.5448 48.8685 79.1315 48.6485 78.7715 48.3818C78.4248 48.1151 78.1515 47.8485 77.9515 47.5818C77.7648 47.3018 77.6715 47.0685 77.6715 46.8818L78.2915 46.6218V51.8818C78.2915 52.2285 78.1782 52.5151 77.9515 52.7418C77.7248 52.9818 77.4382 53.1018 77.0915 53.1018C76.7448 53.1018 76.4582 52.9885 76.2315 52.7618C76.0048 52.5351 75.8915 52.2418 75.8915 51.8818V39.6218C75.8915 39.2751 76.0048 38.9885 76.2315 38.7618C76.4582 38.5218 76.7448 38.4018 77.0915 38.4018C77.4382 38.4018 77.7248 38.5218 77.9515 38.7618C78.1782 38.9885 78.2915 39.2751 78.2915 39.6218V40.6018L77.9515 40.4218C77.9515 40.2485 78.0448 40.0418 78.2315 39.8018C78.4182 39.5485 78.6715 39.3018 78.9915 39.0618C79.3115 38.8085 79.6782 38.6018 80.0915 38.4418C80.5182 38.2818 80.9648 38.2018 81.4315 38.2018ZM81.1315 40.4018C80.5448 40.4018 80.0315 40.5485 79.5915 40.8418C79.1515 41.1351 78.8048 41.5351 78.5515 42.0418C78.3115 42.5351 78.1915 43.1018 78.1915 43.7418C78.1915 44.3685 78.3115 44.9418 78.5515 45.4618C78.8048 45.9685 79.1515 46.3685 79.5915 46.6618C80.0315 46.9551 80.5448 47.1018 81.1315 47.1018C81.7182 47.1018 82.2248 46.9551 82.6515 46.6618C83.0915 46.3685 83.4315 45.9685 83.6715 45.4618C83.9248 44.9418 84.0515 44.3685 84.0515 43.7418C84.0515 43.1018 83.9248 42.5351 83.6715 42.0418C83.4315 41.5351 83.0915 41.1351 82.6515 40.8418C82.2248 40.5485 81.7182 40.4018 81.1315 40.4018ZM99.4301 43.7618C99.4301 44.8551 99.1834 45.8218 98.6901 46.6618C98.2101 47.4885 97.5568 48.1351 96.7301 48.6018C95.9168 49.0685 95.0034 49.3018 93.9901 49.3018C92.9768 49.3018 92.0568 49.0685 91.2301 48.6018C90.4168 48.1351 89.7634 47.4885 89.2701 46.6618C88.7901 45.8218 88.5501 44.8551 88.5501 43.7618C88.5501 42.6685 88.7901 41.7085 89.2701 40.8818C89.7634 40.0418 90.4168 39.3885 91.2301 38.9218C92.0568 38.4418 92.9768 38.2018 93.9901 38.2018C95.0034 38.2018 95.9168 38.4418 96.7301 38.9218C97.5568 39.3885 98.2101 40.0418 98.6901 40.8818C99.1834 41.7085 99.4301 42.6685 99.4301 43.7618ZM97.0301 43.7618C97.0301 43.0818 96.8901 42.4951 96.6101 42.0018C96.3434 41.4951 95.9768 41.1018 95.5101 40.8218C95.0568 40.5418 94.5501 40.4018 93.9901 40.4018C93.4301 40.4018 92.9168 40.5418 92.4501 40.8218C91.9968 41.1018 91.6301 41.4951 91.3501 42.0018C91.0834 42.4951 90.9501 43.0818 90.9501 43.7618C90.9501 44.4285 91.0834 45.0151 91.3501 45.5218C91.6301 46.0151 91.9968 46.4018 92.4501 46.6818C92.9168 46.9618 93.4301 47.1018 93.9901 47.1018C94.5501 47.1018 95.0568 46.9618 95.5101 46.6818C95.9768 46.4018 96.3434 46.0151 96.6101 45.5218C96.8901 45.0151 97.0301 44.4285 97.0301 43.7618ZM104.391 47.8818C104.391 48.2285 104.277 48.5218 104.051 48.7618C103.824 48.9885 103.537 49.1018 103.191 49.1018C102.844 49.1018 102.557 48.9885 102.331 48.7618C102.104 48.5218 101.991 48.2285 101.991 47.8818V39.6218C101.991 39.2751 102.104 38.9885 102.331 38.7618C102.557 38.5218 102.844 38.4018 103.191 38.4018C103.537 38.4018 103.824 38.5218 104.051 38.7618C104.277 38.9885 104.391 39.2751 104.391 39.6218V47.8818ZM103.171 37.1018C102.717 37.1018 102.397 37.0285 102.211 36.8818C102.024 36.7351 101.931 36.4751 101.931 36.1018V35.7218C101.931 35.3351 102.031 35.0751 102.231 34.9418C102.444 34.7951 102.764 34.7218 103.191 34.7218C103.657 34.7218 103.984 34.7951 104.171 34.9418C104.357 35.0885 104.451 35.3485 104.451 35.7218V36.1018C104.451 36.4885 104.351 36.7551 104.151 36.9018C103.951 37.0351 103.624 37.1018 103.171 37.1018ZM116.217 38.2018C116.564 38.2018 116.85 38.3151 117.077 38.5418C117.304 38.7685 117.417 39.0618 117.417 39.4218V47.8818C117.417 48.2285 117.304 48.5218 117.077 48.7618C116.85 48.9885 116.564 49.1018 116.217 49.1018C115.87 49.1018 115.584 48.9885 115.357 48.7618C115.13 48.5218 115.017 48.2285 115.017 47.8818V46.9018L115.457 47.0818C115.457 47.2551 115.364 47.4685 115.177 47.7218C114.99 47.9618 114.737 48.2018 114.417 48.4418C114.097 48.6818 113.717 48.8885 113.277 49.0618C112.85 49.2218 112.384 49.3018 111.877 49.3018C110.957 49.3018 110.124 49.0685 109.377 48.6018C108.63 48.1218 108.037 47.4685 107.597 46.6418C107.17 45.8018 106.957 44.8418 106.957 43.7618C106.957 42.6685 107.17 41.7085 107.597 40.8818C108.037 40.0418 108.624 39.3885 109.357 38.9218C110.09 38.4418 110.904 38.2018 111.797 38.2018C112.37 38.2018 112.897 38.2885 113.377 38.4618C113.857 38.6351 114.27 38.8551 114.617 39.1218C114.977 39.3885 115.25 39.6618 115.437 39.9418C115.637 40.2085 115.737 40.4351 115.737 40.6218L115.017 40.8818V39.4218C115.017 39.0751 115.13 38.7885 115.357 38.5618C115.584 38.3218 115.87 38.2018 116.217 38.2018ZM112.177 47.1018C112.764 47.1018 113.277 46.9551 113.717 46.6618C114.157 46.3685 114.497 45.9685 114.737 45.4618C114.99 44.9551 115.117 44.3885 115.117 43.7618C115.117 43.1218 114.99 42.5485 114.737 42.0418C114.497 41.5351 114.157 41.1351 113.717 40.8418C113.277 40.5485 112.764 40.4018 112.177 40.4018C111.604 40.4018 111.097 40.5485 110.657 40.8418C110.217 41.1351 109.87 41.5351 109.617 42.0418C109.377 42.5485 109.257 43.1218 109.257 43.7618C109.257 44.3885 109.377 44.9551 109.617 45.4618C109.87 45.9685 110.217 46.3685 110.657 46.6618C111.097 46.9551 111.604 47.1018 112.177 47.1018ZM121.816 49.1018C121.469 49.1018 121.182 48.9885 120.956 48.7618C120.729 48.5218 120.616 48.2285 120.616 47.8818V39.6218C120.616 39.2751 120.729 38.9885 120.956 38.7618C121.182 38.5218 121.469 38.4018 121.816 38.4018C122.162 38.4018 122.449 38.5218 122.676 38.7618C122.902 38.9885 123.016 39.2751 123.016 39.6218V41.5018L122.876 40.1618C123.022 39.8418 123.209 39.5618 123.436 39.3218C123.676 39.0685 123.942 38.8618 124.236 38.7018C124.529 38.5285 124.842 38.4018 125.176 38.3218C125.509 38.2418 125.842 38.2018 126.176 38.2018C126.576 38.2018 126.909 38.3151 127.176 38.5418C127.456 38.7685 127.596 39.0351 127.596 39.3418C127.596 39.7818 127.482 40.1018 127.256 40.3018C127.029 40.4885 126.782 40.5818 126.516 40.5818C126.262 40.5818 126.029 40.5351 125.816 40.4418C125.616 40.3485 125.382 40.3018 125.116 40.3018C124.876 40.3018 124.629 40.3618 124.376 40.4818C124.136 40.5885 123.909 40.7618 123.696 41.0018C123.496 41.2418 123.329 41.5418 123.196 41.9018C123.076 42.2485 123.016 42.6618 123.016 43.1418V47.8818C123.016 48.2285 122.902 48.5218 122.676 48.7618C122.449 48.9885 122.162 49.1018 121.816 49.1018Z" fill="white"/>
</svg>
