<svg width="141" height="65" viewBox="0 0 141 65" fill="none" xmlns="http://www.w3.org/2000/svg">
<path d="M46.858 29.14L42.538 39.3C42.4446 39.5533 42.298 39.7533 42.098 39.9C41.9113 40.0333 41.7046 40.1 41.478 40.1C41.118 40.1 40.8513 40 40.678 39.8C40.5046 39.6 40.418 39.3533 40.418 39.06C40.418 38.94 40.438 38.8133 40.478 38.68L45.458 26.72C45.5646 26.4533 45.7246 26.2467 45.938 26.1C46.1646 25.9533 46.4046 25.8933 46.658 25.92C46.898 25.92 47.118 25.9933 47.318 26.14C47.5313 26.2733 47.6846 26.4667 47.778 26.72L52.698 38.44C52.7646 38.6133 52.798 38.7733 52.798 38.92C52.798 39.28 52.678 39.5667 52.438 39.78C52.2113 39.9933 51.958 40.1 51.678 40.1C51.438 40.1 51.218 40.0267 51.018 39.88C50.8313 39.7333 50.6846 39.5333 50.578 39.28L46.278 29.26L46.858 29.14ZM43.158 36.86L44.258 34.56H49.658L50.038 36.86H43.158ZM60.4314 29.1C61.3647 29.1 62.1981 29.34 62.9314 29.82C63.6781 30.2867 64.2647 30.9333 64.6914 31.76C65.1314 32.5867 65.3514 33.5467 65.3514 34.64C65.3514 35.7333 65.1314 36.7 64.6914 37.54C64.2647 38.3667 63.6847 39.02 62.9514 39.5C62.2314 39.9667 61.4181 40.2 60.5114 40.2C59.9781 40.2 59.4781 40.1133 59.0114 39.94C58.5447 39.7667 58.1314 39.5467 57.7714 39.28C57.4247 39.0133 57.1514 38.7467 56.9514 38.48C56.7647 38.2 56.6714 37.9667 56.6714 37.78L57.2914 37.52V42.78C57.2914 43.1267 57.1781 43.4133 56.9514 43.64C56.7247 43.88 56.4381 44 56.0914 44C55.7447 44 55.4581 43.8867 55.2314 43.66C55.0047 43.4333 54.8914 43.14 54.8914 42.78V30.52C54.8914 30.1733 55.0047 29.8867 55.2314 29.66C55.4581 29.42 55.7447 29.3 56.0914 29.3C56.4381 29.3 56.7247 29.42 56.9514 29.66C57.1781 29.8867 57.2914 30.1733 57.2914 30.52V31.5L56.9514 31.32C56.9514 31.1467 57.0447 30.94 57.2314 30.7C57.4181 30.4467 57.6714 30.2 57.9914 29.96C58.3114 29.7067 58.6781 29.5 59.0914 29.34C59.5181 29.18 59.9647 29.1 60.4314 29.1ZM60.1314 31.3C59.5447 31.3 59.0314 31.4467 58.5914 31.74C58.1514 32.0333 57.8047 32.4333 57.5514 32.94C57.3114 33.4333 57.1914 34 57.1914 34.64C57.1914 35.2667 57.3114 35.84 57.5514 36.36C57.8047 36.8667 58.1514 37.2667 58.5914 37.56C59.0314 37.8533 59.5447 38 60.1314 38C60.7181 38 61.2247 37.8533 61.6514 37.56C62.0914 37.2667 62.4314 36.8667 62.6714 36.36C62.9247 35.84 63.0514 35.2667 63.0514 34.64C63.0514 34 62.9247 33.4333 62.6714 32.94C62.4314 32.4333 62.0914 32.0333 61.6514 31.74C61.2247 31.4467 60.7181 31.3 60.1314 31.3ZM78.43 34.66C78.43 35.7533 78.1833 36.72 77.69 37.56C77.21 38.3867 76.5567 39.0333 75.73 39.5C74.9167 39.9667 74.0033 40.2 72.99 40.2C71.9767 40.2 71.0567 39.9667 70.23 39.5C69.4167 39.0333 68.7633 38.3867 68.27 37.56C67.79 36.72 67.55 35.7533 67.55 34.66C67.55 33.5667 67.79 32.6067 68.27 31.78C68.7633 30.94 69.4167 30.2867 70.23 29.82C71.0567 29.34 71.9767 29.1 72.99 29.1C74.0033 29.1 74.9167 29.34 75.73 29.82C76.5567 30.2867 77.21 30.94 77.69 31.78C78.1833 32.6067 78.43 33.5667 78.43 34.66ZM76.03 34.66C76.03 33.98 75.89 33.3933 75.61 32.9C75.3433 32.3933 74.9767 32 74.51 31.72C74.0567 31.44 73.55 31.3 72.99 31.3C72.43 31.3 71.9167 31.44 71.45 31.72C70.9967 32 70.63 32.3933 70.35 32.9C70.0833 33.3933 69.95 33.98 69.95 34.66C69.95 35.3267 70.0833 35.9133 70.35 36.42C70.63 36.9133 70.9967 37.3 71.45 37.58C71.9167 37.86 72.43 38 72.99 38C73.55 38 74.0567 37.86 74.51 37.58C74.9767 37.3 75.3433 36.9133 75.61 36.42C75.89 35.9133 76.03 35.3267 76.03 34.66ZM83.3905 38.78C83.3905 39.1267 83.2771 39.42 83.0505 39.66C82.8238 39.8867 82.5371 40 82.1905 40C81.8438 40 81.5571 39.8867 81.3305 39.66C81.1038 39.42 80.9905 39.1267 80.9905 38.78V30.52C80.9905 30.1733 81.1038 29.8867 81.3305 29.66C81.5571 29.42 81.8438 29.3 82.1905 29.3C82.5371 29.3 82.8238 29.42 83.0505 29.66C83.2771 29.8867 83.3905 30.1733 83.3905 30.52V38.78ZM82.1705 28C81.7171 28 81.3971 27.9267 81.2105 27.78C81.0238 27.6333 80.9305 27.3733 80.9305 27V26.62C80.9305 26.2333 81.0305 25.9733 81.2305 25.84C81.4438 25.6933 81.7638 25.62 82.1905 25.62C82.6571 25.62 82.9838 25.6933 83.1705 25.84C83.3571 25.9867 83.4505 26.2467 83.4505 26.62V27C83.4505 27.3867 83.3505 27.6533 83.1505 27.8C82.9505 27.9333 82.6238 28 82.1705 28ZM95.217 29.1C95.5637 29.1 95.8504 29.2133 96.077 29.44C96.3037 29.6667 96.417 29.96 96.417 30.32V38.78C96.417 39.1267 96.3037 39.42 96.077 39.66C95.8504 39.8867 95.5637 40 95.217 40C94.8704 40 94.5837 39.8867 94.357 39.66C94.1304 39.42 94.017 39.1267 94.017 38.78V37.8L94.457 37.98C94.457 38.1533 94.3637 38.3667 94.177 38.62C93.9904 38.86 93.737 39.1 93.417 39.34C93.097 39.58 92.717 39.7867 92.277 39.96C91.8504 40.12 91.3837 40.2 90.877 40.2C89.957 40.2 89.1237 39.9667 88.377 39.5C87.6304 39.02 87.037 38.3667 86.597 37.54C86.1704 36.7 85.957 35.74 85.957 34.66C85.957 33.5667 86.1704 32.6067 86.597 31.78C87.037 30.94 87.6237 30.2867 88.357 29.82C89.0904 29.34 89.9037 29.1 90.797 29.1C91.3704 29.1 91.897 29.1867 92.377 29.36C92.857 29.5333 93.2704 29.7533 93.617 30.02C93.977 30.2867 94.2504 30.56 94.437 30.84C94.637 31.1067 94.737 31.3333 94.737 31.52L94.017 31.78V30.32C94.017 29.9733 94.1304 29.6867 94.357 29.46C94.5837 29.22 94.8704 29.1 95.217 29.1ZM91.177 38C91.7637 38 92.277 37.8533 92.717 37.56C93.157 37.2667 93.497 36.8667 93.737 36.36C93.9904 35.8533 94.117 35.2867 94.117 34.66C94.117 34.02 93.9904 33.4467 93.737 32.94C93.497 32.4333 93.157 32.0333 92.717 31.74C92.277 31.4467 91.7637 31.3 91.177 31.3C90.6037 31.3 90.097 31.4467 89.657 31.74C89.217 32.0333 88.8704 32.4333 88.617 32.94C88.377 33.4467 88.257 34.02 88.257 34.66C88.257 35.2867 88.377 35.8533 88.617 36.36C88.8704 36.8667 89.217 37.2667 89.657 37.56C90.097 37.8533 90.6037 38 91.177 38ZM100.816 40C100.469 40 100.182 39.8867 99.9556 39.66C99.729 39.42 99.6156 39.1267 99.6156 38.78V30.52C99.6156 30.1733 99.729 29.8867 99.9556 29.66C100.182 29.42 100.469 29.3 100.816 29.3C101.162 29.3 101.449 29.42 101.676 29.66C101.902 29.8867 102.016 30.1733 102.016 30.52V32.4L101.876 31.06C102.022 30.74 102.209 30.46 102.436 30.22C102.676 29.9667 102.942 29.76 103.236 29.6C103.529 29.4267 103.842 29.3 104.176 29.22C104.509 29.14 104.842 29.1 105.176 29.1C105.576 29.1 105.909 29.2133 106.176 29.44C106.456 29.6667 106.596 29.9333 106.596 30.24C106.596 30.68 106.482 31 106.256 31.2C106.029 31.3867 105.782 31.48 105.516 31.48C105.262 31.48 105.029 31.4333 104.816 31.34C104.616 31.2467 104.382 31.2 104.116 31.2C103.876 31.2 103.629 31.26 103.376 31.38C103.136 31.4867 102.909 31.66 102.696 31.9C102.496 32.14 102.329 32.44 102.196 32.8C102.076 33.1467 102.016 33.56 102.016 34.04V38.78C102.016 39.1267 101.902 39.42 101.676 39.66C101.449 39.8867 101.162 40 100.816 40Z" fill="#0E315F"/>
<path d="M21.2046 4.57999C14.5861 4.57999 12.6071 11.9225 12.4449 15.5938C6.606 18.5975 4.65926 22.6027 3.19932 28.1097C2.03136 32.5152 6.28093 38.9566 8.55171 41.6266C6.60512 44.8307 8.38949 50.3042 9.52501 52.6405C19.6473 67.8596 30.9375 59.3155 35.3173 53.1411C41.9357 57.9471 50.4034 57.1461 53.8099 56.1449C61.207 64.9559 73.1136 61.8187 78.1423 59.1486C88.6539 64.7557 96.4727 60.8174 99.0682 58.1474C108.412 63.7544 117.885 59.8161 121.454 57.1461C123.076 58.4811 127.488 60.5504 132.16 58.1474C136.832 55.7444 135.729 48.8023 134.593 45.6317C135.729 44.9642 138 42.6279 138 38.6229C138 34.6178 134.107 29.6115 132.16 27.609C133.458 22.4359 133.134 10.7879 121.454 5.58137C109.774 0.374829 100.69 9.41952 97.6082 14.5927C91.3791 3.3786 79.4401 4.91379 74.2491 7.08314C62.9589 -1.72793 53.6477 5.74813 50.4034 10.5875C44.5636 6.18201 35.3173 8.7519 31.4242 10.5875C30.7753 8.58502 27.823 4.57999 21.2046 4.57999Z" stroke="#0E315F" stroke-width="5" stroke-linejoin="round"/>
</svg>
