<svg width="1440" height="329" viewBox="0 0 1440 329" fill="none" xmlns="http://www.w3.org/2000/svg">
<g filter="url(#filter0_d_910_4273)">
<path fill-rule="evenodd" clip-rule="evenodd" d="M1145.63 188.153C1154.77 188.153 1163.46 185.774 1171.32 181.49C1186.46 202.311 1208.42 215.407 1232.86 215.407C1248.23 215.407 1262.62 210.228 1274.95 201.206C1290.12 224.234 1313.24 238.945 1339.15 238.945C1362.12 238.945 1382.9 227.38 1397.89 208.706C1400.33 209.041 1402.81 209.213 1405.32 209.213C1442.15 209.213 1472 172.329 1472 126.831C1472 81.3322 1442.15 44.4484 1405.32 44.4484C1397.22 44.4484 1389.45 46.2346 1382.27 49.5056C1369.71 40.0106 1354.95 34.5378 1339.15 34.5378C1323.78 34.5378 1309.39 39.7165 1297.06 48.7387C1281.89 25.7104 1258.77 10.9999 1232.86 10.9999C1210.47 10.9999 1190.16 21.9911 1175.27 39.8448C1166.42 34.0826 1156.33 30.8213 1145.63 30.8213C1125.68 30.8213 1107.87 42.1614 1096.2 59.9097C1091.77 58.7086 1087.18 58.0755 1082.46 58.0755C1059.11 58.0755 1038.7 73.6063 1027.62 96.7634C1025.73 75.0136 1010.83 58.0756 992.726 58.0756C984.311 58.0756 976.589 61.7346 970.543 67.835C962.011 34.8692 937.011 11 907.499 11C883.919 11 863.22 26.2371 851.499 49.1769C839.487 34.0273 822.744 24.6271 804.223 24.6271C787.032 24.6271 771.371 32.7267 759.605 46.0059C747.839 32.7267 732.179 24.6271 714.987 24.6271C701.339 24.6271 688.655 29.732 678.12 38.4807C670.534 29.8781 660.419 24.6271 649.311 24.6271C625.993 24.6271 607.049 47.7685 606.703 76.4778C598.022 65.1453 585.732 58.0756 572.107 58.0756C557.397 58.0756 544.245 66.3144 535.509 79.2609C526.772 66.3144 513.621 58.0756 498.911 58.0756C484.284 58.0756 471.197 66.2228 462.46 79.0447C454.146 69.851 443.21 64.2697 431.231 64.2697C422.215 64.2697 413.791 67.431 406.63 72.9142C402.353 71.3201 397.821 70.4638 393.129 70.4638C383.869 70.4638 375.233 73.7989 367.949 79.5597C358.933 42.7423 331.421 15.9553 298.879 15.9553C278.485 15.9553 260.066 26.4764 246.937 43.3939C236.977 36.9444 225.657 33.299 213.652 33.299C193.935 33.299 176.063 43.1337 163.034 59.0755C150.36 33.2184 127.477 15.9553 101.354 15.9553C79.4527 15.9553 59.8296 28.0884 46.59 47.2465C38.375 38.5464 27.741 33.299 16.1254 33.299C-9.90123 33.299 -31 59.6445 -31 92.1434C-31 119.862 -15.6514 143.105 5.01242 149.342C12.7352 168.677 28.7302 181.959 47.2094 181.959C51.7515 181.959 56.1435 181.156 60.2995 179.659C71.9552 189.702 86.1021 195.586 101.354 195.586C121.071 195.586 138.943 185.751 151.972 169.809C164.646 195.666 187.529 212.929 213.652 212.929C234.047 212.929 252.466 202.408 265.594 185.491C275.554 191.94 286.874 195.586 298.879 195.586C321.259 195.586 341.261 182.916 354.503 163.027C363.024 178.219 377.148 188.153 393.129 188.153C402.145 188.153 410.569 184.992 417.73 179.508C422.007 181.102 426.539 181.959 431.231 181.959C445.716 181.959 458.675 173.798 467.32 160.957C475.727 170.17 486.79 175.764 498.911 175.764C513.621 175.764 526.772 167.526 535.509 154.579C544.245 167.526 557.397 175.764 572.107 175.764C598.41 175.764 619.733 149.419 619.733 116.92C619.733 116.329 619.726 115.741 619.712 115.154C627.378 124.301 637.813 129.928 649.311 129.928C650.071 129.928 650.826 129.903 651.576 129.855C659.738 163.575 685.04 188.153 714.987 188.153C732.178 188.153 747.839 180.053 759.605 166.774C771.371 180.053 787.031 188.153 804.223 188.153C827.803 188.153 848.502 172.916 860.223 149.976C872.234 165.125 888.978 174.526 907.499 174.526C933.162 174.526 955.413 156.477 966.39 130.093C972.821 139.107 982.236 144.794 992.726 144.794C1003.19 144.794 1012.58 139.135 1019.01 130.159C1018.87 132.329 1018.79 134.524 1018.79 136.741C1018.79 180.187 1047.3 215.407 1082.46 215.407C1102.42 215.407 1120.23 204.067 1131.9 186.319C1136.32 187.52 1140.92 188.153 1145.63 188.153Z" fill="#FFE6F8"/>
</g>
<g filter="url(#filter1_d_910_4273)">
<path d="M1219.39 182.616C1219.39 137.021 1256.42 100.06 1302.11 100.06C1347.79 100.06 1384.83 137.021 1384.83 182.616C1384.83 228.21 1347.79 265.171 1302.11 265.171C1256.42 265.171 1219.39 228.21 1219.39 182.616Z" fill="#FFE5F8"/>
</g>
<g filter="url(#filter2_d_910_4273)">
<path d="M1131.15 240.655C1131.15 205.561 1159.66 177.112 1194.82 177.112C1229.98 177.112 1258.49 205.561 1258.49 240.655C1258.49 275.749 1229.98 304.198 1194.82 304.198C1159.66 304.198 1131.15 275.749 1131.15 240.655Z" fill="#FFE5F8"/>
</g>
<g filter="url(#filter3_d_910_4273)">
<path d="M948.665 214.637C948.665 179.543 977.171 151.094 1012.33 151.094C1047.5 151.094 1076 179.543 1076 214.637C1076 249.731 1047.5 278.18 1012.33 278.18C977.171 278.18 948.665 249.731 948.665 214.637Z" fill="#FFE5F8"/>
</g>
<g filter="url(#filter4_d_910_4273)">
<path d="M851.408 196.125C851.408 159.649 881.036 130.08 917.584 130.08C954.132 130.08 983.76 159.649 983.76 196.125C983.76 232.6 954.132 262.169 917.584 262.169C881.036 262.169 851.408 232.6 851.408 196.125Z" fill="#FFE5F8"/>
</g>
<g filter="url(#filter5_d_910_4273)">
<path d="M702.009 178.113C702.009 141.637 731.637 112.068 768.185 112.068C804.733 112.068 834.361 141.637 834.361 178.113C834.361 214.588 804.733 244.157 768.185 244.157C731.637 244.157 702.009 214.588 702.009 178.113Z" fill="#FFE5F8"/>
</g>
<g filter="url(#filter6_d_910_4273)">
<path d="M600.74 210.635C600.74 187.147 619.819 168.106 643.353 168.106C666.888 168.106 685.967 187.147 685.967 210.635C685.967 234.122 666.888 253.163 643.353 253.163C619.819 253.163 600.74 234.122 600.74 210.635Z" fill="#FFE5F8"/>
</g>
<g filter="url(#filter7_d_910_4273)">
<path d="M468.387 183.616C468.387 157.365 489.71 136.084 516.014 136.084C542.317 136.084 563.641 157.365 563.641 183.616C563.641 209.868 542.317 231.148 516.014 231.148C489.71 231.148 468.387 209.868 468.387 183.616Z" fill="#FFE5F8"/>
</g>
<g filter="url(#filter8_d_910_4273)">
<path d="M379.151 159.6C379.151 133.349 400.474 112.068 426.778 112.068C453.081 112.068 474.404 133.349 474.404 159.6C474.404 185.851 453.081 207.132 426.778 207.132C400.474 207.132 379.151 185.851 379.151 159.6Z" fill="#FFE5F8"/>
</g>
<g filter="url(#filter9_d_910_4273)">
<path d="M295.929 187.619C295.929 161.368 317.028 140.087 343.054 140.087C369.081 140.087 390.18 161.368 390.18 187.619C390.18 213.87 369.081 235.151 343.054 235.151C317.028 235.151 295.929 213.87 295.929 187.619Z" fill="#FFE5F8"/>
</g>
<g filter="url(#filter10_d_910_4273)">
<path d="M136.504 255.665C136.504 215.597 168.826 183.116 208.697 183.116C248.567 183.116 280.889 215.597 280.889 255.665C280.889 295.733 248.567 328.214 208.697 328.214C168.826 328.214 136.504 295.733 136.504 255.665Z" fill="#FFE5F8"/>
</g>
<g filter="url(#filter11_d_910_4273)">
<path d="M42.2544 176.612C42.2544 136.544 74.5759 104.063 114.447 104.063C154.317 104.063 186.639 136.544 186.639 176.612C186.639 216.679 154.317 249.161 114.447 249.161C74.5759 249.161 42.2544 216.679 42.2544 176.612Z" fill="#FFE5F8"/>
</g>
<g filter="url(#filter12_d_910_4273)">
<path d="M-25.9286 267.673C-25.9286 241.422 -4.82979 220.141 21.1969 220.141C47.2235 220.141 68.3223 241.422 68.3223 267.673C68.3223 293.924 47.2235 315.205 21.1968 315.205C-4.8298 315.205 -25.9286 293.924 -25.9286 267.673Z" fill="#FFE5F8"/>
</g>
<defs>
<filter id="filter0_d_910_4273" x="-31" y="-6.10352e-05" width="1503" height="238.945" filterUnits="userSpaceOnUse" color-interpolation-filters="sRGB">
<feFlood flood-opacity="0" result="BackgroundImageFix"/>
<feColorMatrix in="SourceAlpha" type="matrix" values="0 0 0 0 0 0 0 0 0 0 0 0 0 0 0 0 0 0 127 0" result="hardAlpha"/>
<feOffset dy="-11"/>
<feComposite in2="hardAlpha" operator="out"/>
<feColorMatrix type="matrix" values="0 0 0 0 1 0 0 0 0 0.513726 0 0 0 0 0.862745 0 0 0 1 0"/>
<feBlend mode="normal" in2="BackgroundImageFix" result="effect1_dropShadow_910_4273"/>
<feBlend mode="normal" in="SourceGraphic" in2="effect1_dropShadow_910_4273" result="shape"/>
</filter>
<filter id="filter1_d_910_4273" x="1211.39" y="85.06" width="173.439" height="180.111" filterUnits="userSpaceOnUse" color-interpolation-filters="sRGB">
<feFlood flood-opacity="0" result="BackgroundImageFix"/>
<feColorMatrix in="SourceAlpha" type="matrix" values="0 0 0 0 0 0 0 0 0 0 0 0 0 0 0 0 0 0 127 0" result="hardAlpha"/>
<feOffset dx="-8" dy="-15"/>
<feComposite in2="hardAlpha" operator="out"/>
<feColorMatrix type="matrix" values="0 0 0 0 1 0 0 0 0 0.513726 0 0 0 0 0.862745 0 0 0 1 0"/>
<feBlend mode="normal" in2="BackgroundImageFix" result="effect1_dropShadow_910_4273"/>
<feBlend mode="normal" in="SourceGraphic" in2="effect1_dropShadow_910_4273" result="shape"/>
</filter>
<filter id="filter2_d_910_4273" x="1123.15" y="162.112" width="135.34" height="142.086" filterUnits="userSpaceOnUse" color-interpolation-filters="sRGB">
<feFlood flood-opacity="0" result="BackgroundImageFix"/>
<feColorMatrix in="SourceAlpha" type="matrix" values="0 0 0 0 0 0 0 0 0 0 0 0 0 0 0 0 0 0 127 0" result="hardAlpha"/>
<feOffset dx="-8" dy="-15"/>
<feComposite in2="hardAlpha" operator="out"/>
<feColorMatrix type="matrix" values="0 0 0 0 1 0 0 0 0 0.513726 0 0 0 0 0.862745 0 0 0 1 0"/>
<feBlend mode="normal" in2="BackgroundImageFix" result="effect1_dropShadow_910_4273"/>
<feBlend mode="normal" in="SourceGraphic" in2="effect1_dropShadow_910_4273" result="shape"/>
</filter>
<filter id="filter3_d_910_4273" x="940.664" y="136.094" width="135.34" height="142.086" filterUnits="userSpaceOnUse" color-interpolation-filters="sRGB">
<feFlood flood-opacity="0" result="BackgroundImageFix"/>
<feColorMatrix in="SourceAlpha" type="matrix" values="0 0 0 0 0 0 0 0 0 0 0 0 0 0 0 0 0 0 127 0" result="hardAlpha"/>
<feOffset dx="-8" dy="-15"/>
<feComposite in2="hardAlpha" operator="out"/>
<feColorMatrix type="matrix" values="0 0 0 0 1 0 0 0 0 0.513726 0 0 0 0 0.862745 0 0 0 1 0"/>
<feBlend mode="normal" in2="BackgroundImageFix" result="effect1_dropShadow_910_4273"/>
<feBlend mode="normal" in="SourceGraphic" in2="effect1_dropShadow_910_4273" result="shape"/>
</filter>
<filter id="filter4_d_910_4273" x="843.408" y="115.08" width="140.352" height="147.089" filterUnits="userSpaceOnUse" color-interpolation-filters="sRGB">
<feFlood flood-opacity="0" result="BackgroundImageFix"/>
<feColorMatrix in="SourceAlpha" type="matrix" values="0 0 0 0 0 0 0 0 0 0 0 0 0 0 0 0 0 0 127 0" result="hardAlpha"/>
<feOffset dx="-8" dy="-15"/>
<feComposite in2="hardAlpha" operator="out"/>
<feColorMatrix type="matrix" values="0 0 0 0 1 0 0 0 0 0.513726 0 0 0 0 0.862745 0 0 0 1 0"/>
<feBlend mode="normal" in2="BackgroundImageFix" result="effect1_dropShadow_910_4273"/>
<feBlend mode="normal" in="SourceGraphic" in2="effect1_dropShadow_910_4273" result="shape"/>
</filter>
<filter id="filter5_d_910_4273" x="702.01" y="101.068" width="137.352" height="143.089" filterUnits="userSpaceOnUse" color-interpolation-filters="sRGB">
<feFlood flood-opacity="0" result="BackgroundImageFix"/>
<feColorMatrix in="SourceAlpha" type="matrix" values="0 0 0 0 0 0 0 0 0 0 0 0 0 0 0 0 0 0 127 0" result="hardAlpha"/>
<feOffset dx="5" dy="-11"/>
<feComposite in2="hardAlpha" operator="out"/>
<feColorMatrix type="matrix" values="0 0 0 0 1 0 0 0 0 0.513726 0 0 0 0 0.862745 0 0 0 1 0"/>
<feBlend mode="normal" in2="BackgroundImageFix" result="effect1_dropShadow_910_4273"/>
<feBlend mode="normal" in="SourceGraphic" in2="effect1_dropShadow_910_4273" result="shape"/>
</filter>
<filter id="filter6_d_910_4273" x="600.74" y="156.106" width="86.2266" height="97.0573" filterUnits="userSpaceOnUse" color-interpolation-filters="sRGB">
<feFlood flood-opacity="0" result="BackgroundImageFix"/>
<feColorMatrix in="SourceAlpha" type="matrix" values="0 0 0 0 0 0 0 0 0 0 0 0 0 0 0 0 0 0 127 0" result="hardAlpha"/>
<feOffset dx="1" dy="-12"/>
<feComposite in2="hardAlpha" operator="out"/>
<feColorMatrix type="matrix" values="0 0 0 0 1 0 0 0 0 0.513726 0 0 0 0 0.862745 0 0 0 1 0"/>
<feBlend mode="normal" in2="BackgroundImageFix" result="effect1_dropShadow_910_4273"/>
<feBlend mode="normal" in="SourceGraphic" in2="effect1_dropShadow_910_4273" result="shape"/>
</filter>
<filter id="filter7_d_910_4273" x="467.387" y="125.084" width="97.2539" height="106.064" filterUnits="userSpaceOnUse" color-interpolation-filters="sRGB">
<feFlood flood-opacity="0" result="BackgroundImageFix"/>
<feColorMatrix in="SourceAlpha" type="matrix" values="0 0 0 0 0 0 0 0 0 0 0 0 0 0 0 0 0 0 127 0" result="hardAlpha"/>
<feOffset dy="-10"/>
<feGaussianBlur stdDeviation="0.5"/>
<feComposite in2="hardAlpha" operator="out"/>
<feColorMatrix type="matrix" values="0 0 0 0 1 0 0 0 0 0.513726 0 0 0 0 0.862745 0 0 0 1 0"/>
<feBlend mode="normal" in2="BackgroundImageFix" result="effect1_dropShadow_910_4273"/>
<feBlend mode="normal" in="SourceGraphic" in2="effect1_dropShadow_910_4273" result="shape"/>
</filter>
<filter id="filter8_d_910_4273" x="378.15" y="101.068" width="97.2539" height="106.064" filterUnits="userSpaceOnUse" color-interpolation-filters="sRGB">
<feFlood flood-opacity="0" result="BackgroundImageFix"/>
<feColorMatrix in="SourceAlpha" type="matrix" values="0 0 0 0 0 0 0 0 0 0 0 0 0 0 0 0 0 0 127 0" result="hardAlpha"/>
<feOffset dy="-10"/>
<feGaussianBlur stdDeviation="0.5"/>
<feComposite in2="hardAlpha" operator="out"/>
<feColorMatrix type="matrix" values="0 0 0 0 1 0 0 0 0 0.513726 0 0 0 0 0.862745 0 0 0 1 0"/>
<feBlend mode="normal" in2="BackgroundImageFix" result="effect1_dropShadow_910_4273"/>
<feBlend mode="normal" in="SourceGraphic" in2="effect1_dropShadow_910_4273" result="shape"/>
</filter>
<filter id="filter9_d_910_4273" x="294.93" y="129.087" width="96.25" height="106.064" filterUnits="userSpaceOnUse" color-interpolation-filters="sRGB">
<feFlood flood-opacity="0" result="BackgroundImageFix"/>
<feColorMatrix in="SourceAlpha" type="matrix" values="0 0 0 0 0 0 0 0 0 0 0 0 0 0 0 0 0 0 127 0" result="hardAlpha"/>
<feOffset dy="-10"/>
<feGaussianBlur stdDeviation="0.5"/>
<feComposite in2="hardAlpha" operator="out"/>
<feColorMatrix type="matrix" values="0 0 0 0 1 0 0 0 0 0.513726 0 0 0 0 0.862745 0 0 0 1 0"/>
<feBlend mode="normal" in2="BackgroundImageFix" result="effect1_dropShadow_910_4273"/>
<feBlend mode="normal" in="SourceGraphic" in2="effect1_dropShadow_910_4273" result="shape"/>
</filter>
<filter id="filter10_d_910_4273" x="136.504" y="168.116" width="152.385" height="160.098" filterUnits="userSpaceOnUse" color-interpolation-filters="sRGB">
<feFlood flood-opacity="0" result="BackgroundImageFix"/>
<feColorMatrix in="SourceAlpha" type="matrix" values="0 0 0 0 0 0 0 0 0 0 0 0 0 0 0 0 0 0 127 0" result="hardAlpha"/>
<feOffset dx="8" dy="-15"/>
<feComposite in2="hardAlpha" operator="out"/>
<feColorMatrix type="matrix" values="0 0 0 0 1 0 0 0 0 0.513726 0 0 0 0 0.862745 0 0 0 1 0"/>
<feBlend mode="normal" in2="BackgroundImageFix" result="effect1_dropShadow_910_4273"/>
<feBlend mode="normal" in="SourceGraphic" in2="effect1_dropShadow_910_4273" result="shape"/>
</filter>
<filter id="filter11_d_910_4273" x="42.2539" y="89.0627" width="151.385" height="160.098" filterUnits="userSpaceOnUse" color-interpolation-filters="sRGB">
<feFlood flood-opacity="0" result="BackgroundImageFix"/>
<feColorMatrix in="SourceAlpha" type="matrix" values="0 0 0 0 0 0 0 0 0 0 0 0 0 0 0 0 0 0 127 0" result="hardAlpha"/>
<feOffset dx="7" dy="-15"/>
<feComposite in2="hardAlpha" operator="out"/>
<feColorMatrix type="matrix" values="0 0 0 0 1 0 0 0 0 0.513726 0 0 0 0 0.862745 0 0 0 1 0"/>
<feBlend mode="normal" in2="BackgroundImageFix" result="effect1_dropShadow_910_4273"/>
<feBlend mode="normal" in="SourceGraphic" in2="effect1_dropShadow_910_4273" result="shape"/>
</filter>
<filter id="filter12_d_910_4273" x="-25.9277" y="210.141" width="98.25" height="105.064" filterUnits="userSpaceOnUse" color-interpolation-filters="sRGB">
<feFlood flood-opacity="0" result="BackgroundImageFix"/>
<feColorMatrix in="SourceAlpha" type="matrix" values="0 0 0 0 0 0 0 0 0 0 0 0 0 0 0 0 0 0 127 0" result="hardAlpha"/>
<feOffset dx="4" dy="-10"/>
<feComposite in2="hardAlpha" operator="out"/>
<feColorMatrix type="matrix" values="0 0 0 0 1 0 0 0 0 0.5125 0 0 0 0 0.862228 0 0 0 1 0"/>
<feBlend mode="normal" in2="BackgroundImageFix" result="effect1_dropShadow_910_4273"/>
<feBlend mode="normal" in="SourceGraphic" in2="effect1_dropShadow_910_4273" result="shape"/>
</filter>
</defs>
</svg>
